<?xml version="1.0" encoding="UTF-8"?>
<!DOCTYPE svg PUBLIC "-//W3C//DTD SVG 1.1//EN" "http://www.w3.org/Graphics/SVG/1.1/DTD/svg11.dtd">
<!-- Creator: CorelDRAW 2021 (64-Bit) -->
<svg xmlns="http://www.w3.org/2000/svg" xml:space="preserve" width="8.9757mm" height="18.7837mm" version="1.1" style="shape-rendering:geometricPrecision; text-rendering:geometricPrecision; image-rendering:optimizeQuality; fill-rule:evenodd; clip-rule:evenodd"
viewBox="0 0 161.81 338.62"
 xmlns:xlink="http://www.w3.org/1999/xlink"
 xmlns:xodm="http://www.corel.com/coreldraw/odm/2003">
 <defs>
  <style type="text/css">
   <![CDATA[
    .fil0 {fill:#E31E24}
   ]]>
  </style>
 </defs>
 <g id="Ebene_x0020_1">
  <metadata id="CorelCorpID_0Corel-Layer"/>
  <path class="fil0" d="M0.05 23.07l144.36 144.25c0.24,0.24 0.42,0.52 0.54,0.81 0.12,0.29 0.18,0.63 0.18,0.99 0,0.36 -0.06,0.7 -0.18,0.99 -0.11,0.27 -0.29,0.54 -0.54,0.8l-144.34 144.2 -0.04 12.63 -0.03 10.87 156.18 -155.92c1.84,-1.83 3.23,-3.96 4.16,-6.23 0.98,-2.37 1.47,-4.87 1.47,-7.34 0,-2.47 -0.49,-4.98 -1.47,-7.34 -0.95,-2.29 -2.33,-4.42 -4.16,-6.23l-156.02 -155.55 -0.1 23.07z"/>
 </g>
</svg>
